<?xml version="1.0" encoding="UTF-8"?>
<svg xmlns="http://www.w3.org/2000/svg" viewBox="0 0 920.19 673">
  <defs>
    <style>
      .cls-1 {
        fill: #b2abb3;
      }

      .cls-1, .cls-2, .cls-3, .cls-4, .cls-5, .cls-6, .cls-7, .cls-8 {
        stroke-width: 0px;
      }

      .cls-2 {
        fill: #8a989b;
      }

      .cls-3 {
        fill: #b2afb6;
      }

      .cls-4 {
        fill: #ededed;
      }

      .cls-5 {
        fill: #575757;
      }

      .cls-6 {
        fill: #fafffb;
      }

      .cls-7 {
        fill: #0071bb;
      }

      .cls-8 {
        fill: #373741;
      }
    </style>
  </defs>
  <g id="cabelo">
    <path class="cls-8" d="M309.68,650s-197.44.58-191.53-123.48c0,0-118.15-17.72-118.15-124.05s106.33-129.96,124.05-124.05c0,0,35.44-295.37,336.72-277.65,301.28,17.72,366.26,159.5,360.35,354.44,0,0,124.05,59.07,94.52,165.41-29.54,106.33-135.87,88.61-135.87,88.61,0,0-37.27,116.33-191.09,34.77"/>
  </g>
  <g id="rosto">
    <g>
      <path class="cls-4" d="M165.41,195.71h561.2v265.39c0,104.57-84.9,189.47-189.47,189.47h-178.43c-106.69,0-193.3-86.62-193.3-193.3V195.71h0Z"/>
      <path class="cls-6" d="M673.44,520.61s-70.32,12-66.9,75.58c0,0,48.27-11.81,66.9-75.58Z"/>
    </g>
  </g>
  <g id="queicho">
    <path class="cls-3" d="M431.24,601.79s21.22-25.16,43.1,0c0,0-13.57-19.25-43.1,0Z"/>
  </g>
  <g id="franja">
    <path class="cls-8" d="M153.59,479.26c-11.81,41.35-59.07-82.7-59.07-82.7l70.89-224.48,401.7-47.26,189.04,29.54,47.26,313.09s-35.25-14.92-76.72-41.45c0,0,17-111-40.22-125.73s-97.73-9.69-97.73-9.69c3.31-30.6,7.92-53.52,7.92-53.52,0,0-35.44,59.07-76.8,59.07s-233.29-20.71-268.43,0c-16.74,9.86-93.74,26.86-92.74,97.86.29,20.61-5.09,85.26-5.09,85.26Z"/>
  </g>
  <g id="boca">
    <g>
      <path class="cls-1" d="M547.85,483.75c-3.13,29.3-20.5,48.85-39.46,61.67-5.53,3.73-11.2,6.89-16.69,9.55-25.76,12.48-55.82,14.02-82.24,3.01-.12-.05-.25-.1-.37-.16-52.46-21.92-65.41-59.83-52.04-59.07,31.6,1.79,190.81-15,190.81-15Z"/>
      <path class="cls-2" d="M508.39,545.43c-5.53,3.73-11.2,6.89-16.69,9.55-25.76,12.48-55.82,14.02-82.24,3.01l-.37-.16c6.44-16.3,18.61-32.37,41.29-32.02,28.36.41,45.9,7.38,58.01,19.61Z"/>
    </g>
  </g>
  <g id="olho_fechado" data-name="olho fechado">
    <g>
      <g>
        <path class="cls-5" d="M380.28,408.81c-5.12-10.84-16.85-19.69-26.54-26.2-9.51-6.39-19.42-9.55-30.59-11.57-11.37-2.06-24.01-.88-34.11,5.09-6.65,3.93-11.65,9.13-16.47,15.06-4.11,5.06-8.58,10.72-10.51,17.06-3.31,10.84,12.84,17.73,18.35,7.73,2.33-4.23,3.6-8.93,5.99-13.18,2.9-5.15,7.66-9.82,12.36-13.35,7.34-5.51,15.54-8.94,24.8-9.39,9.83-.48,19.38,4.39,27.45,9.51,5.1,3.23,9.89,6.84,14.28,10.99,3.83,3.62,7,7.91,10.97,11.35,2.24,1.94,5.28-.45,4.02-3.1h0Z"/>
        <path class="cls-5" d="M382.54,408.74c-2.26-24.56-18.7-56.92-47.13-56.44-2.78.05-4.1,4.03-1.47,5.42,9.24,4.87,17.67,10.72,24.32,18.9,7.87,9.68,11.45,21.58,14.62,33.43,1.39,5.19,10.17,4.35,9.65-1.31h0Z"/>
      </g>
      <g>
        <path class="cls-5" d="M527.57,411.92c3.78-3.27,6.8-7.36,10.42-10.82,4.55-4.36,9.51-8.14,14.83-11.51,8.06-5.11,17.63-10,27.45-9.51,9.26.46,17.46,3.87,24.8,9.39,4.48,3.37,9.13,7.83,11.98,12.69,2.61,4.44,3.91,9.37,6.36,13.83,5.45,9.9,21.69,3.22,18.35-7.73-1.94-6.35-6.41-11.97-10.51-17.06-4.78-5.94-9.83-11.15-16.47-15.06-10.11-5.96-22.73-7.15-34.11-5.09s-21.08,5.19-30.59,11.57-21.42,15.37-26.54,26.2c-1.24,2.63,1.77,5.06,4.02,3.1h0Z"/>
        <path class="cls-5" d="M530.94,410.05c3.17-11.85,6.75-23.75,14.62-33.43,6.65-8.19,15.09-14.03,24.32-18.9,2.63-1.38,1.31-5.37-1.47-5.42-28.43-.48-44.87,31.88-47.13,56.44-.51,5.6,8.25,6.55,9.65,1.31h0Z"/>
      </g>
    </g>
  </g>
  <g id="oculos">
    <path class="cls-7" d="M452.73,371.17s11.27-.59,14.98,18.4c4.72,24.17,37.23,86.02,71.69,101.55,95.14,42.89,159.5-30.17,191.88-70.97,23.3-29.39,41.1-64.76,41.1-102.27,0-46.84-94.21-47.79-181.25-29.52-46.3,9.74-90.51,24.91-117.45,41.46,0,0-2.71,1.9-6.54,4.02,0,0-9.07,5.88-18.14,6.51-1.64.12-3.31.05-4.94-.14h0c-.11,0-.21-.02-.31-.04-.2-.03-.4-.05-.6-.08-4.51-.68-9.36-2.46-13.04-4.03-.07-.03-.1-.05-.1-.05-3.52-1.52-5.96-2.85-5.96-2.85-41.52-19.53-118.7-32.02-184.23-30.52-64.7,1.44-117.93,16.55-113.98,51.91,4.06,36.38,24.79,68.88,50.36,95.16,37.04,37.99,115.14,101.6,200.48,51.08,31.57-18.69,56.69-84.53,59.92-108.91,3.29-24.43,16.14-20.72,16.14-20.72ZM390.46,463.17c-10.51,13.2-32.47,51.83-111.57,33.19-60.93-14.33-91.37-66.45-91-124.71.08-12.89,3.76-32.2,35.54-42.84,18.34-6.21,45.46-9.44,85.12-6.75,108.37,7.35,105.92,60.04,105.92,60.04,6.93,35.07-15.65,70.61-24.02,81.07ZM639.02,477.37c-76.53,27.3-105.6-10.14-117.55-22.09-9.44-9.44-35.84-42.24-32.86-77.9,0,0-8.31-52.1,98.57-71.45,1.01-.18,2.03-.36,3.05-.54,104.19-18.16,122.1,16.25,122.41,36.38,1.13,74.49-31.5,120.54-73.62,135.6Z"/>
  </g>
</svg>